<svg viewBox="0 0 24 24" fill="none" xmlns="http://www.w3.org/2000/svg">
<path d="M19.7897 14.9299C17.7297 16.9799 14.7797 17.6099 12.1897 16.7999L7.47966 21.4999C7.13966 21.8499 6.46966 22.0599 5.98966 21.9899L3.80966 21.6899C3.08966 21.5899 2.41966 20.9099 2.30966 20.1899L2.00966 18.0099C1.93966 17.5299 2.16966 16.8599 2.49966 16.5199L7.19966 11.8199C6.39966 9.21995 7.01966 6.26995 9.07966 4.21995C12.0297 1.26995 16.8197 1.26995 19.7797 4.21995C22.7397 7.16995 22.7397 11.9799 19.7897 14.9299Z" stroke="currentColor" stroke-width="1.5" stroke-miterlimit="10" stroke-linecap="round" stroke-linejoin="round"/>
<path opacity="0.4" d="M6.88965 17.49L9.18965 19.79" stroke="currentColor" stroke-width="1.5" stroke-miterlimit="10" stroke-linecap="round" stroke-linejoin="round"/>
<path opacity="0.4" d="M14.5 11C15.3284 11 16 10.3284 16 9.5C16 8.67157 15.3284 8 14.5 8C13.6716 8 13 8.67157 13 9.5C13 10.3284 13.6716 11 14.5 11Z" stroke="currentColor" stroke-width="1.5" stroke-linecap="round" stroke-linejoin="round"/>
</svg>
