<svg viewBox="0 0 24 24" fill="none" xmlns="http://www.w3.org/2000/svg">
<path d="M9.95957 14.0401V12.9301C9.95957 12.5001 9.63957 12.2901 9.24957 12.4601L4.23957 14.6201C3.44957 14.9601 2.80957 14.5401 2.80957 13.6901V12.3701C2.80957 11.6901 3.31957 10.9001 3.94957 10.6401L9.64957 8.19006C9.80957 8.11006 9.94957 7.90006 9.94957 7.72006V4.66006C9.94957 3.70006 10.6596 2.55006 11.5096 2.11006C11.8096 1.96006 12.1696 1.96006 12.4696 2.11006C13.3296 2.55006 14.0396 3.69006 14.0396 4.65006V7.71006C14.0396 7.89006 14.1796 8.10006 14.3396 8.18006L15.3796 8.62006L9.95957 14.0401Z" fill="currentColor"/>
<path opacity="0.4" d="M21.1902 12.37V13.69C21.1902 14.54 20.5502 14.96 19.7602 14.62L14.7502 12.46C14.3502 12.3 14.0402 12.5 14.0402 12.93V15.84C14.0402 16.07 14.1702 16.4 14.3402 16.56L16.6602 18.89C16.9002 19.13 17.0102 19.61 16.9002 19.94L16.4502 21.3C16.2502 21.89 15.5802 22.16 15.0302 21.89L12.6502 19.89C12.2902 19.58 11.7002 19.58 11.3402 19.89L8.96016 21.89C8.41016 22.17 7.74016 21.89 7.56016 21.3L7.11016 19.94C7.00016 19.6 7.11016 19.13 7.35016 18.89L9.67016 16.56C9.83016 16.4 9.96016 16.07 9.96016 15.84V14.04L15.3802 8.62L20.0502 10.63C20.6802 10.9 21.1902 11.69 21.1902 12.37Z" fill="currentColor"/>
</svg>
