<svg viewBox="0 0 24 24" fill="none" xmlns="http://www.w3.org/2000/svg">
<path d="M7.24 2H5.34C3.15 2 2 3.15 2 5.33V7.23C2 9.41 3.15 10.56 5.33 10.56H7.23C9.41 10.56 10.56 9.41 10.56 7.23V5.33C10.57 3.15 9.42 2 7.24 2Z" fill="currentColor"/>
<path opacity="0.4" d="M18.6704 2H16.7704C14.5904 2 13.4404 3.15 13.4404 5.33V7.23C13.4404 9.41 14.5904 10.56 16.7704 10.56H18.6704C20.8504 10.56 22.0004 9.41 22.0004 7.23V5.33C22.0004 3.15 20.8504 2 18.6704 2Z" fill="currentColor"/>
<path d="M18.6704 13.4301H16.7704C14.5904 13.4301 13.4404 14.5801 13.4404 16.7601V18.6601C13.4404 20.8401 14.5904 21.9901 16.7704 21.9901H18.6704C20.8504 21.9901 22.0004 20.8401 22.0004 18.6601V16.7601C22.0004 14.5801 20.8504 13.4301 18.6704 13.4301Z" fill="currentColor"/>
<path opacity="0.4" d="M7.24 13.4301H5.34C3.15 13.4301 2 14.5801 2 16.7601V18.6601C2 20.8501 3.15 22.0001 5.33 22.0001H7.23C9.41 22.0001 10.56 20.8501 10.56 18.6701V16.7701C10.57 14.5801 9.42 13.4301 7.24 13.4301Z" fill="currentColor"/>
</svg>
