<svg viewBox="0 0 24 24" fill="none" xmlns="http://www.w3.org/2000/svg">
<path opacity="0.4" d="M12 22C17.5228 22 22 17.5228 22 12C22 6.47715 17.5228 2 12 2C6.47715 2 2 6.47715 2 12C2 17.5228 6.47715 22 12 22Z" fill="currentColor"/>
<path d="M10.7397 16.28C10.5497 16.28 10.3597 16.21 10.2097 16.06C9.91969 15.77 9.91969 15.29 10.2097 15L13.2097 12L10.2097 8.99997C9.91969 8.70997 9.91969 8.22997 10.2097 7.93997C10.4997 7.64997 10.9797 7.64997 11.2697 7.93997L14.7997 11.47C15.0897 11.76 15.0897 12.24 14.7997 12.53L11.2697 16.06C11.1197 16.21 10.9297 16.28 10.7397 16.28Z" fill="currentColor"/>
</svg>
