<svg viewBox="0 0 24 24" fill="none" xmlns="http://www.w3.org/2000/svg">
<path opacity="0.4" d="M16.8 9H7.2C4 9 2 11 2 14.2V16.79C2 20 4 22 7.2 22H16.79C19.99 22 21.99 20 21.99 16.8V14.2C22 11 20 9 16.8 9Z" fill="currentColor"/>
<path d="M15.8798 5.57L12.5298 2.22C12.2398 1.93 11.7598 1.93 11.4698 2.22L8.11984 5.57C7.82984 5.86 7.82984 6.34 8.11984 6.63C8.40984 6.92 8.88984 6.92 9.17984 6.63L11.2498 4.56V15.25C11.2498 15.66 11.5898 16 11.9998 16C12.4098 16 12.7498 15.66 12.7498 15.25V4.56L14.8198 6.63C14.9698 6.78 15.1598 6.85 15.3498 6.85C15.5398 6.85 15.7298 6.78 15.8798 6.63C16.1798 6.34 16.1798 5.87 15.8798 5.57Z" fill="currentColor"/>
</svg>
