<svg viewBox="0 0 24 24" fill="none" xmlns="http://www.w3.org/2000/svg">
<path opacity="0.4" d="M22 10.76C22 10.29 21.62 9.89999 21.14 9.89999H2.86C2.38 9.89999 2 10.28 2 10.76C2 16.65 6.11 20.76 12 20.76C17.89 20.76 22 16.64 22 10.76Z" fill="currentColor"/>
<path d="M12.5304 3.45998L15.3804 6.29998C15.6704 6.58998 15.6704 7.06998 15.3804 7.35998C15.0904 7.64998 14.6104 7.64998 14.3204 7.35998L12.7504 5.79998V15.37C12.7504 15.78 12.4104 16.12 12.0004 16.12C11.5904 16.12 11.2504 15.78 11.2504 15.37V5.79998L9.69039 7.36998C9.40039 7.65998 8.92039 7.65998 8.63039 7.36998C8.48039 7.21998 8.40039 7.02998 8.40039 6.83998C8.40039 6.64998 8.47039 6.45998 8.62039 6.30998L11.4704 3.46998C11.7604 3.16998 12.2404 3.16998 12.5304 3.45998Z" fill="currentColor"/>
</svg>
