<svg viewBox="0 0 24 24" fill="none" xmlns="http://www.w3.org/2000/svg">
<path opacity="0.4" d="M21.2496 9.14998C20.7596 8.36998 20.1996 7.66998 19.6196 7.03998L15.8496 10.81C15.9696 11.18 16.0396 11.58 16.0396 12C16.0396 14.24 14.2296 16.04 11.9996 16.04C11.5796 16.04 11.1796 15.97 10.8096 15.85L7.34961 19.31C8.80961 20.13 10.3896 20.56 11.9996 20.56C13.7796 20.56 15.5096 20.04 17.0896 19.07C18.6696 18.09 20.0896 16.66 21.2496 14.84C22.2496 13.28 22.2496 10.72 21.2496 9.14998Z" fill="currentColor"/>
<path d="M14.0196 9.98001L9.97965 14.02C9.46965 13.5 9.13965 12.78 9.13965 12C9.13965 10.43 10.4196 9.14001 11.9996 9.14001C12.7796 9.14001 13.4996 9.47001 14.0196 9.98001Z" fill="currentColor"/>
<path opacity="0.4" d="M18.25 5.74999L14.86 9.13999C14.13 8.39999 13.12 7.95999 12 7.95999C9.76 7.95999 7.96 9.76999 7.96 12C7.96 13.12 8.41 14.13 9.14 14.86L5.76 18.25H5.75C4.64 17.35 3.62 16.2 2.75 14.84C1.75 13.27 1.75 10.72 2.75 9.14999C3.91 7.32999 5.33 5.89999 6.91 4.91999C8.49 3.95999 10.22 3.42999 12 3.42999C14.23 3.42999 16.39 4.24999 18.25 5.74999Z" fill="currentColor"/>
<path d="M14.8601 12C14.8601 13.57 13.5801 14.86 12.0001 14.86C11.9401 14.86 11.8901 14.86 11.8301 14.84L14.8401 11.83C14.8601 11.89 14.8601 11.94 14.8601 12Z" fill="currentColor"/>
<path d="M21.7699 2.23C21.4699 1.93 20.9799 1.93 20.6799 2.23L2.22988 20.69C1.92988 20.99 1.92988 21.48 2.22988 21.78C2.37988 21.92 2.56988 22 2.76988 22C2.96988 22 3.15988 21.92 3.30988 21.77L21.7699 3.31C22.0799 3.01 22.0799 2.53 21.7699 2.23Z" fill="currentColor"/>
</svg>
