<svg viewBox="0 0 24 24" fill="none" xmlns="http://www.w3.org/2000/svg">
<path opacity="0.4" d="M19.8796 20.9401C18.9296 21.6401 17.6796 22.0001 16.1896 22.0001H7.8096C7.5696 22.0001 7.32961 21.9901 7.09961 21.9601L13.9996 15.0601L19.8796 20.9401Z" fill="currentColor"/>
<path opacity="0.4" d="M21.9996 7.80997V16.19C21.9996 17.68 21.6396 18.93 20.9396 19.88L15.0596 14L21.9596 7.09998C21.9896 7.32998 21.9996 7.56997 21.9996 7.80997Z" fill="currentColor"/>
<path opacity="0.4" d="M15.06 14L20.94 19.88C20.65 20.3 20.3 20.65 19.88 20.94L14 15.06L7.10001 21.96C6.46001 21.92 5.88001 21.79 5.35001 21.59C3.21001 20.81 2 18.91 2 16.19V7.81C2 4.17 4.17 2 7.81 2H16.19C18.91 2 20.81 3.21 21.59 5.35C21.79 5.88 21.92 6.46 21.96 7.1L15.06 14Z" fill="currentColor"/>
<path d="M15.0596 14L20.9396 19.88C20.6496 20.3 20.2996 20.65 19.8796 20.94L13.9996 15.06L7.09961 21.96C6.45961 21.92 5.87961 21.79 5.34961 21.59L5.73959 21.2L21.5896 5.34998C21.7896 5.87998 21.9196 6.45998 21.9596 7.09998L15.0596 14Z" fill="currentColor"/>
<path d="M12.2398 7.93003C11.8598 6.28003 10.3998 5.54003 9.11981 5.53003C7.83981 5.53003 6.37981 6.27003 5.99981 7.92003C5.57981 9.75003 6.6998 11.28 7.7098 12.24C8.1098 12.62 8.60981 12.8 9.11981 12.8C9.62981 12.8 10.1298 12.61 10.5298 12.24C11.5398 11.28 12.6598 9.75003 12.2398 7.93003ZM9.14981 9.49003C8.59981 9.49003 8.14981 9.04003 8.14981 8.49003C8.14981 7.94003 8.58981 7.49003 9.14981 7.49003H9.15982C9.70982 7.49003 10.1598 7.94003 10.1598 8.49003C10.1598 9.04003 9.69981 9.49003 9.14981 9.49003Z" fill="currentColor"/>
</svg>
