<svg viewBox="0 0 24 24" fill="none" xmlns="http://www.w3.org/2000/svg">
<path opacity="0.4" d="M8.56004 3.33997V17.67C8.22004 17.68 7.88004 17.76 7.63004 17.91L5.28004 19.25C3.64004 20.19 2.29004 19.41 2.29004 17.51V7.77997C2.29004 7.14997 2.74004 6.36997 3.30004 6.04997L7.63004 3.56997C7.88004 3.42997 8.22004 3.34997 8.56004 3.33997Z" fill="currentColor"/>
<path d="M15.7296 6.33006V20.6601C15.3796 20.6701 15.0396 20.6101 14.7696 20.4801L9.51957 17.8501C9.24957 17.7201 8.90957 17.6601 8.55957 17.6701V3.34006C8.90957 3.33006 9.24957 3.39006 9.51957 3.52006L14.7696 6.15006C15.0396 6.28006 15.3796 6.34006 15.7296 6.33006Z" fill="currentColor"/>
<path opacity="0.4" d="M22.0005 6.48994V16.2199C22.0005 16.8499 21.5505 17.6299 20.9905 17.9499L16.6605 20.4299C16.4105 20.5699 16.0705 20.6499 15.7305 20.6599V6.32994C16.0705 6.31994 16.4105 6.23994 16.6605 6.08994L19.0105 4.74994C20.6505 3.80994 22.0005 4.58994 22.0005 6.48994Z" fill="currentColor"/>
</svg>
