<svg viewBox="0 0 24 24" fill="none" xmlns="http://www.w3.org/2000/svg">
<path opacity="0.4" d="M16.19 2H7.81C4.17 2 2 4.17 2 7.81V16.18C2 19.83 4.17 22 7.81 22H16.18C19.82 22 21.99 19.83 21.99 16.19V7.81C22 4.17 19.83 2 16.19 2Z" fill="currentColor"/>
<path d="M12.2003 17.66C11.5003 17.66 10.7903 17.39 10.2603 16.86C9.19031 15.79 9.19031 14.04 10.2603 12.97L11.6703 11.56C11.9603 11.27 12.4403 11.27 12.7303 11.56C13.0203 11.85 13.0203 12.33 12.7303 12.62L11.3203 14.03C10.8303 14.52 10.8303 15.31 11.3203 15.8C11.8103 16.29 12.6003 16.29 13.0903 15.8L15.3103 13.58C15.9203 12.97 16.2603 12.15 16.2603 11.28C16.2603 10.41 15.9203 9.6 15.3103 8.98C14.0803 7.75 11.9403 7.75 10.7103 8.98L8.29031 11.4C7.25031 12.44 7.25031 14.14 8.29031 15.19C8.58031 15.48 8.58031 15.96 8.29031 16.25C8.00031 16.54 7.52031 16.54 7.23031 16.25C5.60031 14.62 5.60031 11.97 7.23031 10.34L9.65031 7.92C10.5503 7.02 11.7403 6.53 13.0103 6.53C14.2803 6.53 15.4703 7.02 16.3703 7.92C17.2703 8.82 17.7603 10.01 17.7603 11.28C17.7603 12.55 17.2703 13.74 16.3703 14.64L14.1503 16.86C13.6103 17.39 12.9103 17.66 12.2003 17.66Z" fill="currentColor"/>
</svg>
