<svg viewBox="0 0 24 24" fill="none" xmlns="http://www.w3.org/2000/svg">
<path opacity="0.4" d="M8.88003 4.59997C8.08003 1.13997 2.87002 1.12997 2.07002 4.59997C1.60002 6.62997 2.89003 8.34997 4.01003 9.41997C4.83003 10.19 6.12003 10.19 6.94003 9.41997C8.06003 8.34997 9.34003 6.62997 8.88003 4.59997ZM5.51003 6.19997C4.96003 6.19997 4.51003 5.74997 4.51003 5.19997C4.51003 4.64997 4.95003 4.19997 5.50003 4.19997H5.51003C6.07003 4.19997 6.51003 4.64997 6.51003 5.19997C6.51003 5.74997 6.07003 6.19997 5.51003 6.19997Z" fill="currentColor"/>
<path d="M6.50977 5.19995C6.50977 5.74995 6.06977 6.19995 5.50977 6.19995C4.95977 6.19995 4.50977 5.74995 4.50977 5.19995C4.50977 4.64995 4.94977 4.19995 5.49977 4.19995H5.50977C6.06977 4.19995 6.50977 4.64995 6.50977 5.19995Z" fill="currentColor"/>
<path opacity="0.4" d="M21.91 16.6C21.11 13.14 15.88 13.13 15.07 16.6C14.6 18.63 15.89 20.35 17.02 21.42C17.84 22.19 19.14 22.19 19.96 21.42C21.09 20.35 22.38 18.63 21.91 16.6ZM18.53 18.2C17.98 18.2 17.53 17.75 17.53 17.2C17.53 16.65 17.97 16.2 18.52 16.2H18.53C19.08 16.2 19.53 16.65 19.53 17.2C19.53 17.75 19.08 18.2 18.53 18.2Z" fill="currentColor"/>
<path d="M19.5303 17.2C19.5303 17.75 19.0803 18.2 18.5303 18.2C17.9803 18.2 17.5303 17.75 17.5303 17.2C17.5303 16.65 17.9703 16.2 18.5203 16.2H18.5303C19.0803 16.2 19.5303 16.65 19.5303 17.2Z" fill="currentColor"/>
<path d="M12.0004 19.75H9.32043C8.16043 19.75 7.15043 19.05 6.75043 17.97C6.34043 16.89 6.64043 15.7 7.51043 14.93L15.5004 7.94C15.9804 7.52 15.9904 6.95 15.8504 6.56C15.7004 6.17 15.3204 5.75 14.6804 5.75H12.0004C11.5904 5.75 11.2504 5.41 11.2504 5C11.2504 4.59 11.5904 4.25 12.0004 4.25H14.6804C15.8404 4.25 16.8504 4.95 17.2504 6.03C17.6604 7.11 17.3604 8.3 16.4904 9.07L8.50043 16.06C8.02043 16.48 8.01043 17.05 8.15043 17.44C8.30043 17.83 8.68043 18.25 9.32043 18.25H12.0004C12.4104 18.25 12.7504 18.59 12.7504 19C12.7504 19.41 12.4104 19.75 12.0004 19.75Z" fill="currentColor"/>
</svg>
