<svg viewBox="0 0 24 24" fill="none" xmlns="http://www.w3.org/2000/svg">
<path opacity="0.4" d="M18.3505 19.68C17.8005 21.09 16.4605 22 14.9505 22H9.05047C7.53047 22 6.20047 21.09 5.65047 19.68C5.10047 18.26 5.48047 16.69 6.60047 15.67L10.6505 12H13.3605L17.4005 15.67C18.5205 16.69 18.8905 18.26 18.3505 19.68Z" fill="currentColor"/>
<path d="M13.82 18.14H10.18C9.8 18.14 9.5 17.83 9.5 17.46C9.5 17.08 9.81 16.78 10.18 16.78H13.82C14.2 16.78 14.5 17.09 14.5 17.46C14.5 17.83 14.19 18.14 13.82 18.14Z" fill="currentColor"/>
<path d="M18.3497 4.32C17.7997 2.91 16.4597 2 14.9497 2H9.04967C7.53967 2 6.19967 2.91 5.64967 4.32C5.10967 5.74 5.47967 7.31 6.60967 8.33L10.6497 12H13.3597L17.3997 8.33C18.5197 7.31 18.8897 5.74 18.3497 4.32ZM13.8197 7.23H10.1797C9.79967 7.23 9.49967 6.92 9.49967 6.55C9.49967 6.18 9.80967 5.87 10.1797 5.87H13.8197C14.1997 5.87 14.4997 6.18 14.4997 6.55C14.4997 6.92 14.1897 7.23 13.8197 7.23Z" fill="currentColor"/>
</svg>
