<svg viewBox="0 0 24 24" fill="none" xmlns="http://www.w3.org/2000/svg">
<path opacity="0.4" d="M9.51026 4.23001L18.0703 8.51001C21.9103 10.43 21.9103 13.57 18.0703 15.49L9.51026 19.77C3.75026 22.65 1.40026 20.29 4.28026 14.54L5.15026 12.81C5.40026 12.3 5.40026 11.71 5.15026 11.2L4.28026 9.46001C1.40026 3.71001 3.76026 1.35001 9.51026 4.23001Z" fill="currentColor"/>
<path d="M14.8404 12.75H9.44043C9.03043 12.75 8.69043 12.41 8.69043 12C8.69043 11.59 9.03043 11.25 9.44043 11.25H14.8404C15.2504 11.25 15.5904 11.59 15.5904 12C15.5904 12.41 15.2504 12.75 14.8404 12.75Z" fill="currentColor"/>
</svg>
