<svg viewBox="0 0 24 24" fill="none" xmlns="http://www.w3.org/2000/svg">
<path opacity="0.4" d="M17 20.5H7C4 20.5 2 19 2 15.5V8.5C2 5 4 3.5 7 3.5H17C20 3.5 22 5 22 8.5V15.5C22 19 20 20.5 17 20.5Z" fill="currentColor"/>
<path d="M11.9998 12.87C11.1598 12.87 10.3098 12.61 9.65978 12.08L6.52978 9.58C6.20978 9.32 6.14978 8.85 6.40978 8.53C6.66978 8.21 7.13978 8.15 7.45978 8.41L10.5898 10.91C11.3498 11.52 12.6398 11.52 13.3998 10.91L16.5298 8.41C16.8498 8.15 17.3298 8.2 17.5798 8.53C17.8398 8.85 17.7898 9.33 17.4598 9.58L14.3298 12.08C13.6898 12.61 12.8398 12.87 11.9998 12.87Z" fill="currentColor"/>
</svg>
