<svg viewBox="0 0 24 24" fill="none" xmlns="http://www.w3.org/2000/svg">
<path opacity="0.4" d="M12 22C17.5228 22 22 17.5228 22 12C22 6.47715 17.5228 2 12 2C6.47715 2 2 6.47715 2 12C2 17.5228 6.47715 22 12 22Z" fill="currentColor"/>
<path d="M10.5804 15.58C10.3804 15.58 10.1904 15.5 10.0504 15.36L7.22043 12.53C6.93043 12.24 6.93043 11.76 7.22043 11.47C7.51043 11.18 7.99043 11.18 8.28043 11.47L10.5804 13.77L15.7204 8.62998C16.0104 8.33998 16.4904 8.33998 16.7804 8.62998C17.0704 8.91998 17.0704 9.39998 16.7804 9.68998L11.1104 15.36C10.9704 15.5 10.7804 15.58 10.5804 15.58Z" fill="currentColor"/>
</svg>
