<svg viewBox="0 0 24 24" fill="none" xmlns="http://www.w3.org/2000/svg">
<path d="M16.192 2H7.81195C4.17195 2 2.00195 4.17 2.00195 7.81V16.18C2.00195 19.83 4.17195 22 7.81195 22H16.182C19.822 22 21.992 19.83 21.992 16.19V7.81C22.002 4.17 19.832 2 16.192 2ZM9.11195 16.9C9.11195 17.18 8.89195 17.4 8.61195 17.4H5.82195C5.54195 17.4 5.32195 17.18 5.32195 16.9V12.28C5.32195 11.65 5.83195 11.14 6.46195 11.14H8.61195C8.89195 11.14 9.11195 11.36 9.11195 11.64V16.9ZM13.892 16.9C13.892 17.18 13.672 17.4 13.392 17.4H10.602C10.322 17.4 10.102 17.18 10.102 16.9V7.74C10.102 7.11 10.612 6.6 11.242 6.6H12.762C13.392 6.6 13.902 7.11 13.902 7.74V16.9H13.892ZM18.682 16.9C18.682 17.18 18.462 17.4 18.182 17.4H15.392C15.112 17.4 14.892 17.18 14.892 16.9V13.35C14.892 13.07 15.112 12.85 15.392 12.85H17.542C18.172 12.85 18.682 13.36 18.682 13.99V16.9Z" fill="currentColor"/>
</svg>
