<svg viewBox="0 0 24 24" fill="none" xmlns="http://www.w3.org/2000/svg">
<path d="M12.752 15.9201H13.402C14.052 15.9201 14.592 15.3401 14.592 14.6401C14.592 13.7701 14.282 13.6001 13.772 13.4201L12.762 13.0701V15.9201H12.752Z" fill="currentColor"/>
<path d="M11.972 1.89992C6.45202 1.91992 1.98202 6.40992 2.00202 11.9299C2.02202 17.4499 6.51202 21.9199 12.032 21.8999C17.552 21.8799 22.022 17.3899 22.002 11.8699C21.982 6.34992 17.492 1.88992 11.972 1.89992ZM14.262 11.9999C15.042 12.2699 16.092 12.8499 16.092 14.6399C16.092 16.1799 14.882 17.4199 13.402 17.4199H12.752V17.9999C12.752 18.4099 12.412 18.7499 12.002 18.7499C11.592 18.7499 11.252 18.4099 11.252 17.9999V17.4199H10.892C9.25202 17.4199 7.92202 16.0399 7.92202 14.3399C7.92202 13.9299 8.26202 13.5899 8.67202 13.5899C9.08202 13.5899 9.42202 13.9299 9.42202 14.3399C9.42202 15.2099 10.082 15.9199 10.892 15.9199H11.252V12.5399L9.74202 11.9999C8.96202 11.7299 7.91202 11.1499 7.91202 9.35992C7.91202 7.81992 9.12202 6.57992 10.602 6.57992H11.252V5.99992C11.252 5.58992 11.592 5.24992 12.002 5.24992C12.412 5.24992 12.752 5.58992 12.752 5.99992V6.57992H13.112C14.752 6.57992 16.082 7.95992 16.082 9.65992C16.082 10.0699 15.742 10.4099 15.332 10.4099C14.922 10.4099 14.582 10.0699 14.582 9.65992C14.582 8.78992 13.922 8.07992 13.112 8.07992H12.752V11.4599L14.262 11.9999Z" fill="currentColor"/>
<path d="M9.42188 9.37008C9.42188 10.2401 9.73187 10.4101 10.2419 10.5901L11.2519 10.9401V8.08008H10.6019C9.95188 8.08008 9.42188 8.66008 9.42188 9.37008Z" fill="currentColor"/>
</svg>
