<svg viewBox="0 0 24 24" fill="none" xmlns="http://www.w3.org/2000/svg">
<path d="M19.7897 4.22001C16.8297 1.27001 12.0297 1.27001 9.08966 4.22001C7.01966 6.27001 6.39966 9.22001 7.19966 11.82L2.49966 16.52C2.16966 16.86 1.93966 17.53 2.00966 18.01L2.30966 20.19C2.41966 20.91 3.08966 21.59 3.80966 21.69L5.98966 21.99C6.46966 22.06 7.13966 21.84 7.47966 21.49L8.29966 20.67C8.49966 20.48 8.49966 20.16 8.29966 19.96L6.35966 18.02C6.06966 17.73 6.06966 17.25 6.35966 16.96C6.64966 16.67 7.12966 16.67 7.41966 16.96L9.36966 18.91C9.55966 19.1 9.87966 19.1 10.0697 18.91L12.1897 16.8C14.7797 17.61 17.7297 16.98 19.7897 14.93C22.7397 11.98 22.7397 7.17001 19.7897 4.22001ZM14.4997 12C13.1197 12 11.9997 10.88 11.9997 9.50001C11.9997 8.12001 13.1197 7.00001 14.4997 7.00001C15.8797 7.00001 16.9997 8.12001 16.9997 9.50001C16.9997 10.88 15.8797 12 14.4997 12Z" fill="currentColor"/>
</svg>
