<svg viewBox="0 0 24 24" fill="none" xmlns="http://www.w3.org/2000/svg">
<path d="M19.1719 6.64002C18.7419 4.47002 17.1319 3.52002 14.8919 3.52002H6.11191C3.47191 3.52002 1.71191 4.84002 1.71191 7.92002V13.07C1.71191 15.29 2.62191 16.59 4.12191 17.15C4.34191 17.23 4.58191 17.3 4.83191 17.34C5.23191 17.43 5.66191 17.47 6.11191 17.47H14.9019C17.5419 17.47 19.3019 16.15 19.3019 13.07V7.92002C19.3019 7.45002 19.2619 7.03002 19.1719 6.64002ZM5.53191 12C5.53191 12.41 5.19191 12.75 4.78191 12.75C4.37191 12.75 4.03191 12.41 4.03191 12V9.00002C4.03191 8.59002 4.37191 8.25002 4.78191 8.25002C5.19191 8.25002 5.53191 8.59002 5.53191 9.00002V12ZM10.5019 13.14C9.04191 13.14 7.86191 11.96 7.86191 10.5C7.86191 9.04002 9.04191 7.86002 10.5019 7.86002C11.9619 7.86002 13.1419 9.04002 13.1419 10.5C13.1419 11.96 11.9619 13.14 10.5019 13.14ZM16.9619 12C16.9619 12.41 16.6219 12.75 16.2119 12.75C15.8019 12.75 15.4619 12.41 15.4619 12V9.00002C15.4619 8.59002 15.8019 8.25002 16.2119 8.25002C16.6219 8.25002 16.9619 8.59002 16.9619 9.00002V12Z" fill="currentColor"/>
<path d="M22.3017 10.92V16.07C22.3017 19.15 20.5417 20.48 17.8917 20.48H9.11172C8.36172 20.48 7.69172 20.37 7.11172 20.15C6.64172 19.98 6.23172 19.73 5.90172 19.41C5.72172 19.24 5.86172 18.97 6.11172 18.97H14.8917C18.5917 18.97 20.7917 16.77 20.7917 13.08V7.92003C20.7917 7.68003 21.0617 7.53003 21.2317 7.71003C21.9117 8.43003 22.3017 9.48003 22.3017 10.92Z" fill="currentColor"/>
</svg>
