<svg viewBox="0 0 24 24" fill="none" xmlns="http://www.w3.org/2000/svg">
<path d="M12.0001 4.64999C7.22008 4.64999 3.33008 8.53999 3.33008 13.32C3.33008 18.1 7.22008 22 12.0001 22C16.7801 22 20.6701 18.11 20.6701 13.33C20.6701 8.54999 16.7801 4.64999 12.0001 4.64999ZM12.7501 13C12.7501 13.41 12.4101 13.75 12.0001 13.75C11.5901 13.75 11.2501 13.41 11.2501 13V7.99999C11.2501 7.58999 11.5901 7.24999 12.0001 7.24999C12.4101 7.24999 12.7501 7.58999 12.7501 7.99999V13Z" fill="currentColor"/>
<path d="M14.8896 3.45H9.10965C8.70965 3.45 8.38965 3.13 8.38965 2.73C8.38965 2.33 8.70965 2 9.10965 2H14.8896C15.2896 2 15.6096 2.32 15.6096 2.72C15.6096 3.12 15.2896 3.45 14.8896 3.45Z" fill="currentColor"/>
</svg>
