<svg viewBox="0 0 60 61" fill="none" xmlns="http://www.w3.org/2000/svg">
<path opacity="0.4" d="M24.3116 55.5H35.6892C40.9356 55.5 45.29 51.4455 45.6638 46.2125L47.4714 15.9051C42.1556 14.0402 36.2376 13 30.0004 13C23.7631 13 17.8451 14.0402 12.5293 15.9051L14.337 46.2125C14.7108 51.4455 19.0652 55.5 24.3116 55.5Z" fill="#E52622"/>
<path fill-rule="evenodd" clip-rule="evenodd" d="M36.8754 11.5391V10.5C36.8754 6.70304 33.7974 3.625 30.0004 3.625C26.2035 3.625 23.1254 6.70304 23.1254 10.5V11.5391C17.163 12.2647 11.5927 13.9199 6.67904 16.3145C5.74816 16.7681 5.36127 17.8905 5.81491 18.8214C6.26855 19.7523 7.39093 20.1392 8.32181 19.6855C14.5509 16.6499 21.9898 14.875 30.0004 14.875C38.0111 14.875 45.4499 16.6499 51.679 19.6855C52.6099 20.1392 53.7323 19.7523 54.1859 18.8214C54.6396 17.8905 54.2527 16.7681 53.3218 16.3145C48.4081 13.9199 42.8379 12.2647 36.8754 11.5391Z" fill="#E52622"/>
<path fill-rule="evenodd" clip-rule="evenodd" d="M25 23.625C26.0355 23.625 26.875 24.4645 26.875 25.5V40.5C26.875 41.5355 26.0355 42.375 25 42.375C23.9645 42.375 23.125 41.5355 23.125 40.5V25.5C23.125 24.4645 23.9645 23.625 25 23.625Z" fill="#E52622"/>
<path fill-rule="evenodd" clip-rule="evenodd" d="M35 23.625C36.0355 23.625 36.875 24.4645 36.875 25.5V40.5C36.875 41.5355 36.0355 42.375 35 42.375C33.9645 42.375 33.125 41.5355 33.125 40.5V25.5C33.125 24.4645 33.9645 23.625 35 23.625Z" fill="#E52622"/>
</svg>
