<svg viewBox="0 0 24 24" fill="none" xmlns="http://www.w3.org/2000/svg">
<path d="M10.1103 18.15H6.32031C5.91031 18.15 5.57031 17.81 5.57031 17.4V12.28C5.57031 11.24 6.4203 10.39 7.4603 10.39H10.1103C10.5203 10.39 10.8603 10.73 10.8603 11.14V17.39C10.8603 17.81 10.5203 18.15 10.1103 18.15ZM7.07031 16.65H9.36029V11.9H7.4603C7.2503 11.9 7.07031 12.07 7.07031 12.29V16.65Z" fill="currentColor"/>
<path d="M13.8896 18.15H10.0996C9.68961 18.15 9.34961 17.81 9.34961 17.4V7.73999C9.34961 6.69999 10.1996 5.84998 11.2396 5.84998H12.7596C13.7996 5.84998 14.6496 6.69999 14.6496 7.73999V17.4C14.6396 17.81 14.3096 18.15 13.8896 18.15ZM10.8596 16.65H13.1496V7.73999C13.1496 7.52999 12.9796 7.34998 12.7596 7.34998H11.2396C11.0296 7.34998 10.8496 7.51999 10.8496 7.73999V16.65H10.8596Z" fill="currentColor"/>
<path d="M17.6806 18.15H13.8906C13.4806 18.15 13.1406 17.81 13.1406 17.4V12.85C13.1406 12.44 13.4806 12.1 13.8906 12.1H16.5406C17.5806 12.1 18.4306 12.95 18.4306 13.99V17.4C18.4306 17.81 18.1006 18.15 17.6806 18.15ZM14.6406 16.65H16.9306V13.99C16.9306 13.78 16.7606 13.6 16.5406 13.6H14.6406V16.65Z" fill="currentColor"/>
<path d="M15 22.75H9C3.57 22.75 1.25 20.43 1.25 15V9C1.25 3.57 3.57 1.25 9 1.25H15C20.43 1.25 22.75 3.57 22.75 9V15C22.75 20.43 20.43 22.75 15 22.75ZM9 2.75C4.39 2.75 2.75 4.39 2.75 9V15C2.75 19.61 4.39 21.25 9 21.25H15C19.61 21.25 21.25 19.61 21.25 15V9C21.25 4.39 19.61 2.75 15 2.75H9Z" fill="currentColor"/>
</svg>
