<svg viewBox="0 0 24 24" fill="none" xmlns="http://www.w3.org/2000/svg">
<path d="M10.9697 22.75C7.24973 22.75 4.21973 19.72 4.21973 16V10C4.21973 5.73 7.69973 2.25 11.9697 2.25C16.2397 2.25 19.7197 5.73 19.7197 10V15.5C19.7197 17.84 17.8097 19.75 15.4697 19.75C13.1297 19.75 11.2197 17.84 11.2197 15.5V12C11.2197 11.59 11.5597 11.25 11.9697 11.25C12.3797 11.25 12.7197 11.59 12.7197 12V15.5C12.7197 17.02 13.9497 18.25 15.4697 18.25C16.9897 18.25 18.2197 17.02 18.2197 15.5V10C18.2197 6.55 15.4197 3.75 11.9697 3.75C8.51973 3.75 5.71973 6.55 5.71973 10V16C5.71973 18.89 8.06973 21.25 10.9697 21.25C11.3797 21.25 11.7197 21.59 11.7197 22C11.7197 22.41 11.3897 22.75 10.9697 22.75Z" fill="currentColor"/>
</svg>
