<svg viewBox="0 0 24 24" fill="none" xmlns="http://www.w3.org/2000/svg">
<path d="M2.5 14.07V11.51C2.5 9.44001 4.19 7.75 6.26 7.75H17.74C19.81 7.75 21.5 9.44001 21.5 11.51V12.95H19.48C18.92 12.95 18.41 13.17 18.04 13.55C17.62 13.96 17.38 14.55 17.44 15.18C17.53 16.26 18.52 17.05 19.6 17.05H21.5V18.24C21.5 20.31 19.81 22 17.74 22H6.26C4.19 22 2.5 20.31 2.5 18.24" stroke="currentColor" stroke-width="1.5" stroke-linecap="round" stroke-linejoin="round"/>
<path d="M12.2803 2.17006C13.5203 1.70006 14.8503 2.62009 14.8503 3.95009V7.75008" stroke="currentColor" stroke-width="1.5" stroke-linecap="round" stroke-linejoin="round"/>
<path d="M2.5 12.4099V7.83997C2.5 6.64997 3.23 5.58992 4.34 5.16992L8.31 3.66992" stroke="currentColor" stroke-width="1.5" stroke-linecap="round" stroke-linejoin="round"/>
<path d="M22.5598 13.9699V16.03C22.5598 16.58 22.1198 17.0299 21.5598 17.0499H19.5998C18.5198 17.0499 17.5298 16.2599 17.4398 15.1799C17.3798 14.5499 17.6198 13.9599 18.0398 13.5499C18.4098 13.1699 18.9198 12.95 19.4798 12.95H21.5598C22.1198 12.97 22.5598 13.4199 22.5598 13.9699Z" stroke="currentColor" stroke-width="1.5" stroke-linecap="round" stroke-linejoin="round"/>
<path d="M7 12H14" stroke="currentColor" stroke-width="1.5" stroke-linecap="round" stroke-linejoin="round"/>
</svg>
