<svg viewBox="0 0 24 24" fill="none" xmlns="http://www.w3.org/2000/svg">
<path d="M9.02992 14C8.63992 13.43 8.41992 12.74 8.41992 12C8.41992 10.02 10.0199 8.42001 11.9999 8.42001C13.9799 8.42001 15.5799 10.02 15.5799 12C15.5799 13.98 13.9799 15.58 11.9999 15.58" stroke="currentColor" stroke-width="1.5" stroke-linecap="round" stroke-linejoin="round"/>
<path d="M17.5598 5.58001C15.8698 4.38001 13.9698 3.73001 11.9998 3.73001C8.46984 3.73001 5.17984 5.81001 2.88984 9.41001C1.98984 10.82 1.98984 13.19 2.88984 14.6C5.17984 18.2 8.46984 20.28 11.9998 20.28C15.5298 20.28 18.8198 18.2 21.1098 14.6C22.0098 13.19 22.0098 10.82 21.1098 9.41001" stroke="currentColor" stroke-width="1.5" stroke-linecap="round" stroke-linejoin="round"/>
</svg>
