<svg viewBox="0 0 24 24" fill="none" xmlns="http://www.w3.org/2000/svg">
<path d="M14.5299 9.47001L9.46992 14.53C8.81992 13.88 8.41992 12.99 8.41992 12C8.41992 10.02 10.0199 8.42001 11.9999 8.42001C12.9899 8.42001 13.8799 8.82001 14.5299 9.47001Z" stroke="currentColor" stroke-width="1.5" stroke-linecap="round" stroke-linejoin="round"/>
<path d="M5.59984 17.76C4.59984 16.9 3.68984 15.84 2.88984 14.59C1.98984 13.18 1.98984 10.81 2.88984 9.4C4.06984 7.55 5.50984 6.1 7.11984 5.13" stroke="currentColor" stroke-width="1.5" stroke-linecap="round" stroke-linejoin="round"/>
<path d="M17.82 5.77001C16.07 4.45001 14.07 3.73001 12 3.73001" stroke="currentColor" stroke-width="1.5" stroke-linecap="round" stroke-linejoin="round"/>
<path d="M8.41992 19.53C9.55992 20.01 10.7699 20.27 11.9999 20.27C15.5299 20.27 18.8199 18.19 21.1099 14.59C22.0099 13.18 22.0099 10.81 21.1099 9.39999C20.7799 8.87999 20.4199 8.38999 20.0499 7.92999" stroke="currentColor" stroke-width="1.5" stroke-linecap="round" stroke-linejoin="round"/>
<path d="M15.5104 12.7C15.2504 14.11 14.1004 15.26 12.6904 15.52" stroke="currentColor" stroke-width="1.5" stroke-linecap="round" stroke-linejoin="round"/>
<path d="M9.47 14.53L2 22" stroke="currentColor" stroke-width="1.5" stroke-linecap="round" stroke-linejoin="round"/>
<path d="M22.0003 2L14.5303 9.47" stroke="currentColor" stroke-width="1.5" stroke-linecap="round" stroke-linejoin="round"/>
</svg>
