<svg viewBox="0 0 24 24" fill="none" xmlns="http://www.w3.org/2000/svg">
<path d="M9 6C7.9 6 7 6.9 7 8C7 9.1 7.9 10 9 10C10.1 10 11 9.1 11 8" stroke="currentColor" stroke-width="1.5" stroke-linecap="round" stroke-linejoin="round"/>
<path d="M2 12.89V15C2 20 4 22 9 22H15C20 22 22 20 22 15V10" stroke="currentColor" stroke-width="1.5" stroke-linecap="round" stroke-linejoin="round"/>
<path d="M13 2H9C4 2 2 4 2 9" stroke="currentColor" stroke-width="1.5" stroke-linecap="round" stroke-linejoin="round"/>
<path d="M19.1399 2.59003L15.5099 6.22003C15.3699 6.36003 15.2299 6.63003 15.2099 6.83003L15.0099 8.22003C14.9399 8.72003 15.2899 9.07003 15.7899 9.00003L17.1799 8.80003C17.3699 8.77003 17.6499 8.64003 17.7899 8.50003L21.4199 4.87003C22.0499 4.24003 22.3399 3.52003 21.4199 2.60003C20.4899 1.66003 19.7699 1.96003 19.1399 2.59003Z" stroke="currentColor" stroke-width="1.5" stroke-miterlimit="10" stroke-linecap="round" stroke-linejoin="round"/>
<path d="M18.6201 3.10999C18.9301 4.20999 19.7901 5.06999 20.8901 5.37999" stroke="currentColor" stroke-width="1.5" stroke-miterlimit="10" stroke-linecap="round" stroke-linejoin="round"/>
<path d="M2.66992 18.9501L7.59992 15.6401C8.38992 15.1101 9.52992 15.1701 10.2399 15.7801L10.5699 16.0701C11.3499 16.7401 12.6099 16.7401 13.3899 16.0701L17.5499 12.5001C18.3299 11.8301 19.5899 11.8301 20.3699 12.5001L21.9999 13.9001" stroke="currentColor" stroke-width="1.5" stroke-linecap="round" stroke-linejoin="round"/>
</svg>
