<svg viewBox="0 0 24 24" fill="none" xmlns="http://www.w3.org/2000/svg">
<path d="M12.9897 2.14996C15.3697 1.68996 17.9397 2.37996 19.7897 4.21996C22.7397 7.16996 22.7397 11.98 19.7897 14.92C17.7297 16.97 14.7797 17.6 12.1897 16.79L7.47966 21.49C7.13966 21.84 6.46966 22.05 5.98966 21.98L3.80966 21.68C3.08966 21.58 2.41966 20.9 2.30966 20.18L2.00966 18C1.93966 17.52 2.16966 16.85 2.49966 16.51L3.61966 15.39L7.18966 11.82C6.38966 9.21996 7.00966 6.26996 9.06966 4.21996" stroke="currentColor" stroke-width="1.5" stroke-miterlimit="10" stroke-linecap="round" stroke-linejoin="round"/>
<path d="M6.88965 17.49L9.18965 19.79" stroke="currentColor" stroke-width="1.5" stroke-miterlimit="10" stroke-linecap="round" stroke-linejoin="round"/>
<path d="M14.5 11C15.3284 11 16 10.3284 16 9.5C16 8.67157 15.3284 8 14.5 8C13.6716 8 13 8.67157 13 9.5C13 10.3284 13.6716 11 14.5 11Z" stroke="currentColor" stroke-width="1.5" stroke-linecap="round" stroke-linejoin="round"/>
</svg>
